<?xml version="1.0" encoding="utf-8"?>
<svg version="1.1" id="Capa_1" x="0px" y="0px" width="512px" height="512px" viewBox="0 0 965.199 965.199" style="enable-background:new 0 0 965.199 965.199;" xmlns="http://www.w3.org/2000/svg">
  <g>
    <path d="M263.85,30c0-16.6-13.4-30-30-30h-202c-16.6,0-30,13.4-30,30v202.1c0,16.6,13.4,30,30,30h202.1c16.6,0,30-13.4,30-30V30   H263.85z" fill="#1a86d6"/>
    <path d="M613.55,30c0-16.6-13.4-30-30-30h-202c-16.6,0-30,13.4-30,30v202.1c0,16.6,13.4,30,30,30h202c16.6,0,30-13.4,30-30V30z" fill="#1a86d6"/>
    <path d="M963.25,30c0-16.6-13.4-30-30-30h-202c-16.601,0-30,13.4-30,30v202.1c0,16.6,13.399,30,30,30h202.1c16.601,0,30-13.4,30-30   V30H963.25z" fill="#1a86d6"/>
    <path d="M263.85,381.6c0-16.6-13.4-30-30-30h-202c-16.6,0-30,13.4-30,30v202c0,16.6,13.4,30,30,30h202.1c16.6,0,30-13.4,30-30v-202   H263.85z" fill="#1a86d6"/>
    <path d="M 613.55 381.6 C 613.55 365 600.15 351.6 583.55 351.6 L 381.55 351.6 C 364.95 351.6 351.55 365 351.55 381.6 L 351.55 583.6 C 351.55 600.2 364.95 613.6 381.55 613.6 L 583.55 613.6 C 600.15 613.6 613.55 600.2 613.55 583.6 L 613.55 381.6 Z" fill="#1a86d6" transform="matrix(0, -1, 1, 0, -0.050003, 965.149979)"/>
    <path d="M963.25,381.6c0-16.6-13.4-30-30-30h-202c-16.601,0-30,13.4-30,30v202c0,16.6,13.399,30,30,30h202.1   c16.601,0,30-13.4,30-30v-202H963.25z" fill="#1a86d6"/>
    <path d="M233.85,703.1h-202c-16.6,0-30,13.4-30,30v202.1c0,16.602,13.4,30,30,30h202.1c16.6,0,30-13.398,30-30V733.1   C263.85,716.6,250.45,703.1,233.85,703.1z" fill="#1a86d6"/>
    <path d="M583.55,703.1h-202c-16.6,0-30,13.4-30,30v202.1c0,16.602,13.4,30,30,30h202c16.6,0,30-13.398,30-30V733.1   C613.55,716.6,600.149,703.1,583.55,703.1z" fill="#1a86d6"/>
    <path d="M933.25,703.1h-202c-16.601,0-30,13.4-30,30v202.1c0,16.602,13.399,30,30,30h202.1c16.601,0,30-13.398,30-30V733.1   C963.25,716.6,949.85,703.1,933.25,703.1z" fill="#1a86d6"/>
  </g>
  <g/>
  <g/>
  <g/>
  <g/>
  <g/>
  <g/>
  <g/>
  <g/>
  <g/>
  <g/>
  <g/>
  <g/>
  <g/>
  <g/>
  <g/>
</svg>