<?xml version="1.0" encoding="iso-8859-1"?>
<!-- Generator: Adobe Illustrator 16.0.0, SVG Export Plug-In . SVG Version: 6.00 Build 0)  -->
<!DOCTYPE svg PUBLIC "-//W3C//DTD SVG 1.1//EN" "http://www.w3.org/Graphics/SVG/1.1/DTD/svg11.dtd">
<svg version="1.1" id="Capa_1" xmlns="http://www.w3.org/2000/svg" xmlns:xlink="http://www.w3.org/1999/xlink" x="0px" y="0px"
	 width="45.254px" height="45.254px" viewBox="0 0 45.254 45.254" style="enable-background:new 0 0 45.254 45.254;"
	 xml:space="preserve">
<g>
	<path d="M44.68,12.649l-7.261-7.261c-0.562-0.562-1.41-0.729-2.144-0.426c-0.734,0.304-1.217,1.02-1.217,1.813v3.632
		c-4.874,0.947-9.049,4.03-11.438,8.238c-2.388-4.208-6.514-7.291-11.436-8.238V6.775c0-0.793-0.477-1.509-1.211-1.813
		C9.242,4.658,8.399,4.826,7.837,5.389L0.575,12.65c-0.767,0.767-0.767,2.009,0,2.775l7.262,7.263
		c0.562,0.561,1.404,0.729,2.137,0.425c0.734-0.304,1.211-1.02,1.211-1.813v-2.735c3.378,1.291,5.742,4.55,5.742,8.357v10.619
		c0,1.603,1.298,2.9,2.899,2.9h0.619h4.362h0.606c1.603,0,2.9-1.298,2.9-2.9V26.923c0-3.808,2.413-7.067,5.742-8.357v2.735
		c0,0.794,0.481,1.509,1.217,1.813c0.732,0.304,1.578,0.136,2.14-0.425l7.265-7.263C45.447,14.659,45.447,13.417,44.68,12.649z"/>
</g>
<g>
</g>
<g>
</g>
<g>
</g>
<g>
</g>
<g>
</g>
<g>
</g>
<g>
</g>
<g>
</g>
<g>
</g>
<g>
</g>
<g>
</g>
<g>
</g>
<g>
</g>
<g>
</g>
<g>
</g>
</svg>
