<?xml version="1.0" encoding="iso-8859-1"?>
<!-- Generator: Adobe Illustrator 19.0.0, SVG Export Plug-In . SVG Version: 6.00 Build 0)  -->
<svg version="1.1" id="Capa_1" xmlns="http://www.w3.org/2000/svg" xmlns:xlink="http://www.w3.org/1999/xlink" x="0px" y="0px"
	 viewBox="0 0 59.911 59.911" style="enable-background:new 0 0 59.911 59.911;" xml:space="preserve">
<path d="M59.605,23.399c-0.241-0.281-0.593-0.443-0.965-0.443H56V8.723c0-0.975-0.793-1.768-1.768-1.768H23.566l-2.485-4.141
	c-0.317-0.53-0.898-0.859-1.516-0.859H5.767C4.793,1.956,4,2.749,4,3.723v19.232H1.27c-0.37,0-0.721,0.161-0.962,0.441
	c-0.242,0.28-0.35,0.651-0.294,1.02l4.917,32.454c0.091,0.618,0.631,1.085,1.257,1.085h47.534c0.626,0,1.166-0.467,1.256-1.081
	l4.918-32.454C59.953,24.053,59.847,23.681,59.605,23.399z M6,3.956h13.434l2.485,4.141c0.317,0.53,0.898,0.859,1.516,0.859H54v14
	h-1v-4h-1v-3h-1v-3H9v3H8v3H7v4H6V3.956z M9,20.956h42v2H9V20.956z M10,17.956h40v1H10V17.956z M49,15.956H11v-1h38V15.956z
	 M53.095,55.956H6.815l-4.696-31H4h3h46h3h1.792L53.095,55.956z"/>
<g>
</g>
<g>
</g>
<g>
</g>
<g>
</g>
<g>
</g>
<g>
</g>
<g>
</g>
<g>
</g>
<g>
</g>
<g>
</g>
<g>
</g>
<g>
</g>
<g>
</g>
<g>
</g>
<g>
</g>
</svg>
