<?xml version="1.0" encoding="iso-8859-1"?>
<!-- Generator: Adobe Illustrator 19.0.0, SVG Export Plug-In . SVG Version: 6.00 Build 0)  -->
<svg version="1.1" id="Layer_1" xmlns="http://www.w3.org/2000/svg" xmlns:xlink="http://www.w3.org/1999/xlink" x="0px" y="0px"
	 viewBox="0 0 512 512" style="enable-background:new 0 0 512 512;" xml:space="preserve">
<g>
	<g>
		<g>
			<path d="M446.147,117.431h-14.817h-41.561c-6.552-21.836-18.444-41.844-35.017-58.419C328.374,32.636,293.304,18.111,256,18.111
				c-62.986,0-116.359,41.919-133.707,99.32H0v80.668h122.294c16.666,55.135,66.569,95.984,126.307,99.123v20.355l-24.699,0.005
				l-0.005,176.307h64.2l0.005-176.32l-24.683,0.005v-20.352c59.728-3.14,109.624-43.989,126.287-99.123h41.623h14.817H512v-80.668
				H446.147z M238.719,362.615h34.565l-0.003,86.228h-34.565L238.719,362.615z M238.715,479.075l0.001-15.414h34.565l-0.001,15.414
				H238.715z M273.285,347.8h-34.565l0.001-15.409h34.565L273.285,347.8z M256,32.925c33.347,0,64.694,12.984,88.274,36.562
				c6.155,6.155,11.581,12.844,16.249,19.955H151.571C173.895,55.433,212.365,32.925,256,32.925z M14.817,183.284v-51.036h103.874
				c-1.534,8.276-2.344,16.802-2.344,25.516c0,8.715,0.81,17.243,2.345,25.521H14.817z M256.008,282.602
				c-43.632-0.005-82.099-22.508-104.427-56.509h208.842C338.099,260.098,299.636,282.602,256.008,282.602z M368.77,211.276H143.232
				c-7.733-16.228-12.068-34.374-12.068-53.514c0-19.136,4.333-37.277,12.061-53.501h225.637
				c7.839,16.507,11.974,34.687,11.974,53.501C380.836,176.902,376.501,195.047,368.77,211.276z M431.329,183.284h-38.021
				c1.535-8.277,2.345-16.806,2.345-25.521c0.001-8.653-0.791-17.183-2.32-25.516h37.997V183.284z M497.183,183.284h-51.036v-51.036
				h51.036V183.284z"/>
			<path d="M199.201,159.725l-4.938,7.409l-4.938-7.409v-24.686h-14.817v24.686l-4.938,7.409l-4.938-7.409v-24.686h-14.817v26.924
				c0,1.462,0.435,2.89,1.244,4.109l12.347,18.522c1.375,2.063,3.689,3.3,6.164,3.3s4.79-1.236,6.164-3.297l6.183-9.276l6.182,9.273
				c1.372,2.063,3.689,3.3,6.164,3.3c2.478,0,4.792-1.236,6.164-3.297l12.347-18.522c0.812-1.219,1.244-2.647,1.244-4.109v-26.926
				h-14.817V159.725z"/>
			<path d="M273.288,159.725l-4.938,7.409l-4.941-7.409v-24.686h0h-14.817v24.686l-4.938,7.409l-4.938-7.409v-24.686h-14.817v26.924
				c0,1.462,0.435,2.89,1.244,4.109l12.347,18.522c1.372,2.063,3.689,3.3,6.164,3.3c2.475,0,4.79-1.236,6.164-3.297l6.184-9.275
				l6.181,9.272c1.375,2.063,3.689,3.3,6.164,3.3s4.79-1.236,6.167-3.297l12.347-18.522c0.812-1.219,1.244-2.647,1.244-4.109
				v-26.926h-14.817V159.725z"/>
			<path d="M347.374,135.039v24.686l-4.941,7.409l-4.938-7.409v-24.686h-14.817h0v24.686l-4.938,7.409l-4.941-7.409v-24.686h-14.817
				v26.924c0,1.462,0.435,2.89,1.244,4.109l12.347,18.522c1.372,2.063,3.686,3.3,6.164,3.3c2.476,0,4.79-1.236,6.167-3.297
				l6.183-9.276l6.182,9.273c1.372,2.063,3.686,3.3,6.162,3.3s4.792-1.236,6.17-3.297l12.347-18.522
				c0.809-1.219,1.244-2.647,1.244-4.109v-26.926H347.374z"/>
		</g>
	</g>
</g>
<g>
</g>
<g>
</g>
<g>
</g>
<g>
</g>
<g>
</g>
<g>
</g>
<g>
</g>
<g>
</g>
<g>
</g>
<g>
</g>
<g>
</g>
<g>
</g>
<g>
</g>
<g>
</g>
<g>
</g>
</svg>
