<?xml version="1.0" encoding="iso-8859-1"?>
<!-- Generator: Adobe Illustrator 19.1.0, SVG Export Plug-In . SVG Version: 6.00 Build 0)  -->
<svg version="1.1" id="Capa_1" xmlns="http://www.w3.org/2000/svg" xmlns:xlink="http://www.w3.org/1999/xlink" x="0px" y="0px"
	 viewBox="0 0 483.6 483.6" style="enable-background:new 0 0 483.6 483.6;" xml:space="preserve">
<g>
	<path d="M466.2,353.25H451v-30.2c0-9.9-5.6-17.1-13.4-17.1h-53.1v-36.4h15.2c9.5,0,17.2-7.7,17.2-17.2v-30
		c0-9.5-7.7-17.2-17.2-17.2h-15.2v-30.3c0-9.4-7.7-17.1-17.1-17.1H251.2v-27.3h15.4c9.5,0,17.2-7.7,17.2-17.2v-30
		c0-9.5-7.7-17.2-17.2-17.2h-49.9c-9.5,0-17.2,7.7-17.2,17.2v30c0,9.5,7.7,17.2,17.2,17.2h15.1v27.3H116.1
		c-9.4,0-17.1,7.7-17.1,17.1v30.2H83.7c-9.5,0-17.2,7.7-17.2,17.2v30c0,9.5,7.7,17.2,17.2,17.2h15.2v36.4h-53
		c-7.8,0-13.4,7.2-13.4,17.1v30.2H17.2c-9.5,0-17.2,7.7-17.2,17.2v30c0,9.5,7.7,17.2,17.2,17.2h49.9c9.5,0,17.2-7.7,17.2-17.2v-30
		c0-9.5-7.7-17.2-17.2-17.2H51.9v-27.9h113.6v27.9h-15.2c-9.5,0-17.2,7.7-17.2,17.2v30c0,9.5,7.7,17.2,17.2,17.2h49.9
		c9.5,0,17.2-7.7,17.2-17.2v-30c0-9.5-7.7-17.2-17.2-17.2H185v-30.2c0-9.9-5.6-17.1-13.4-17.1h-53.1v-36.4h15.2
		c9.5,0,17.2-7.7,17.2-17.2v-30c0-9.5-7.7-17.2-17.2-17.2h-15.2v-27.9h113.4v27.9h-15.1c-9.5,0-17.2,7.7-17.2,17.2v30
		c0,9.5,7.7,17.2,17.2,17.2h49.9c9.5,0,17.2-7.7,17.2-17.2v-30c0-9.5-7.7-17.2-17.2-17.2h-15.4v-27.9h113.8v27.9h-15.2
		c-9.5,0-17.2,7.7-17.2,17.2v30c0,9.5,7.7,17.2,17.2,17.2h15.2v36.4H312c-7.8,0-13.4,7.2-13.4,17.1v30.2h-15.2
		c-9.5,0-17.2,7.7-17.2,17.2v30c0,9.5,7.7,17.2,17.2,17.2h49.9c9.5,0,17.2-7.7,17.2-17.2v-30c0-9.5-7.7-17.2-17.2-17.2h-15.2v-27.9
		h113.6v27.9h-15.2c-9.5,0-17.2,7.7-17.2,17.2v30c0,9.5,7.7,17.2,17.2,17.2h49.9c9.5,0,17.2-7.7,17.2-17.2v-30
		C483.3,360.95,475.7,353.25,466.2,353.25z"/>
</g>
<g>
</g>
<g>
</g>
<g>
</g>
<g>
</g>
<g>
</g>
<g>
</g>
<g>
</g>
<g>
</g>
<g>
</g>
<g>
</g>
<g>
</g>
<g>
</g>
<g>
</g>
<g>
</g>
<g>
</g>
</svg>
