<?xml version="1.0" encoding="iso-8859-1"?>
<!-- Generator: Adobe Illustrator 16.0.0, SVG Export Plug-In . SVG Version: 6.00 Build 0)  -->
<!DOCTYPE svg PUBLIC "-//W3C//DTD SVG 1.1//EN" "http://www.w3.org/Graphics/SVG/1.1/DTD/svg11.dtd">
<svg version="1.1" id="Capa_1" xmlns="http://www.w3.org/2000/svg" xmlns:xlink="http://www.w3.org/1999/xlink" x="0px" y="0px"
	 width="529.234px" height="529.234px" viewBox="0 0 529.234 529.234" style="enable-background:new 0 0 529.234 529.234;"
	 xml:space="preserve">
<g>
	<g>
		<path d="M478.319,297.626h17.188c1.295,0,2.345-1.049,2.345-2.344v-30.86c0-1.294-1.05-2.344-2.345-2.344h-17.188
			c-1.295,0-2.344,1.049-2.344,2.344v30.86C475.977,296.577,477.024,297.626,478.319,297.626z M480.663,266.766h12.5v26.172h-12.5
			V266.766z"/>
		<path d="M33.724,297.626h17.188c1.294,0,2.344-1.049,2.344-2.344v-30.86c0-1.294-1.05-2.344-2.344-2.344H33.724
			c-1.294,0-2.344,1.049-2.344,2.344v30.86C31.38,296.577,32.429,297.626,33.724,297.626z M36.067,266.766h12.5v26.172h-12.5
			V266.766z"/>
		<path d="M74.088,297.626h17.188c1.294,0,2.344-1.049,2.344-2.344v-30.86c0-1.294-1.05-2.344-2.344-2.344H74.088
			c-1.294,0-2.344,1.049-2.344,2.344v30.86C71.745,296.577,72.794,297.626,74.088,297.626z M76.432,266.766h12.5v26.172h-12.5
			V266.766z"/>
		<path d="M114.454,297.626h17.188c1.294,0,2.344-1.049,2.344-2.344v-30.86c0-1.294-1.05-2.344-2.344-2.344h-17.188
			c-1.295,0-2.344,1.049-2.344,2.344v30.86C112.11,296.577,113.159,297.626,114.454,297.626z M116.797,266.766h12.5v26.172h-12.5
			V266.766z"/>
		<path d="M154.818,297.626h17.188c1.294,0,2.344-1.049,2.344-2.344v-30.86c0-1.294-1.05-2.344-2.344-2.344h-17.188
			c-1.295,0-2.344,1.049-2.344,2.344v30.86C152.475,296.577,153.523,297.626,154.818,297.626z M157.162,266.766h12.5v26.172h-12.5
			V266.766z"/>
		<path d="M33.724,358.954h17.188c1.294,0,2.344-1.049,2.344-2.344v-30.859c0-1.295-1.05-2.344-2.344-2.344H33.724
			c-1.294,0-2.344,1.049-2.344,2.344v30.859C31.38,357.905,32.429,358.954,33.724,358.954z M36.067,328.095h12.5v26.172h-12.5
			V328.095z"/>
		<path d="M74.088,358.954h17.188c1.294,0,2.344-1.049,2.344-2.344v-30.859c0-1.295-1.05-2.344-2.344-2.344H74.088
			c-1.294,0-2.344,1.049-2.344,2.344v30.859C71.745,357.905,72.794,358.954,74.088,358.954z M76.432,328.095h12.5v26.172h-12.5
			V328.095z"/>
		<path d="M114.454,358.954h17.188c1.294,0,2.344-1.049,2.344-2.344v-30.859c0-1.295-1.05-2.344-2.344-2.344h-17.188
			c-1.295,0-2.344,1.049-2.344,2.344v30.859C112.11,357.905,113.159,358.954,114.454,358.954z M116.797,328.095h12.5v26.172h-12.5
			V328.095z"/>
		<path d="M154.818,358.954h17.188c1.294,0,2.344-1.049,2.344-2.344v-30.859c0-1.295-1.05-2.344-2.344-2.344h-17.188
			c-1.295,0-2.344,1.049-2.344,2.344v30.859C152.475,357.905,153.523,358.954,154.818,358.954z M157.162,328.095h12.5v26.172h-12.5
			V328.095z"/>
		<path d="M526.887,231.024h-9.113v-15.885c0-1.294-1.049-2.344-2.344-2.344H379.751V184.93c0-1.294-1.049-2.344-2.344-2.344h-9.114
			V172.43c0-1.294-1.05-2.344-2.344-2.344c-1.295,0-2.344,1.049-2.344,2.344v10.156h-9.114c-1.295,0-2.344,1.049-2.344,2.344v27.865
			h-12.5V197.43c0-1.294-1.049-2.344-2.345-2.344h-70.345v-37.632l12.399-6.377c0.009-0.005,0.017-0.012,0.024-0.017
			c0.084-0.045,0.162-0.102,0.241-0.157c0.049-0.034,0.102-0.062,0.146-0.1c0.059-0.048,0.109-0.107,0.165-0.162
			c0.055-0.055,0.112-0.105,0.161-0.165c0.036-0.045,0.065-0.098,0.101-0.146c0.055-0.079,0.111-0.156,0.156-0.241
			c0.005-0.009,0.012-0.016,0.017-0.025c0.024-0.049,0.038-0.101,0.061-0.151c0.033-0.082,0.07-0.163,0.098-0.248
			c0.021-0.073,0.032-0.146,0.048-0.22c0.015-0.075,0.032-0.149,0.039-0.225s0.005-0.151,0.005-0.228s0.002-0.151-0.005-0.228
			s-0.024-0.15-0.039-0.226c-0.016-0.073-0.027-0.147-0.048-0.22c-0.026-0.085-0.063-0.166-0.098-0.248
			c-0.021-0.05-0.035-0.102-0.061-0.151c-0.005-0.009-0.012-0.016-0.017-0.025c-0.046-0.086-0.104-0.165-0.158-0.244
			c-0.034-0.047-0.062-0.099-0.098-0.143c-0.052-0.062-0.111-0.115-0.17-0.172c-0.053-0.052-0.101-0.108-0.157-0.155
			c-0.047-0.039-0.104-0.07-0.154-0.106c-0.076-0.053-0.151-0.107-0.232-0.15c-0.01-0.005-0.017-0.012-0.025-0.017l-13.671-7.031
			c-0.728-0.374-1.596-0.342-2.293,0.083c-0.697,0.425-1.123,1.184-1.123,2.001v53.125h-70.345c-1.294,0-2.344,1.049-2.344,2.344
			v15.365h-12.5v-27.865c0-1.294-1.049-2.344-2.344-2.344h-9.114v-10.156c0-1.294-1.05-2.344-2.344-2.344
			c-1.295,0-2.344,1.049-2.344,2.344v10.156h-9.115c-1.294,0-2.344,1.049-2.344,2.344v27.865H13.802
			c-1.294,0-2.344,1.05-2.344,2.344v15.885H2.344c-1.295,0-2.344,1.049-2.344,2.344v9.375c0,1.294,1.049,2.344,2.344,2.344h9.114
			v142.189c0,1.295,1.05,2.344,2.344,2.344h178.125h16.146H234.8h16.146h27.341h16.146h26.728h16.146h178.125
			c1.295,0,2.344-1.049,2.344-2.344V245.086h9.114c1.295,0,2.344-1.049,2.344-2.344v-9.375
			C529.23,232.073,528.183,231.024,526.887,231.024z M266.959,145.803l6.203,3.19l-6.203,3.19V145.803z M154.167,187.274h18.229
			v25.521h-18.229V187.274z M189.583,384.931H16.146V245.086h173.438L189.583,384.931L189.583,384.931z M189.583,240.399H13.802
			H4.688v-4.688h9.114h175.781V240.399z M189.583,231.024H16.146v-13.542h135.678h22.916h14.844L189.583,231.024L189.583,231.024z
			 M264.615,201.811l61.474,26.87H203.142L264.615,201.811z M194.271,215.139v-15.365h63.301l-63.301,27.668V215.139z
			 M205.729,384.931h-11.458V245.086h11.458L205.729,384.931L205.729,384.931z M232.455,384.931h-22.039V245.086h22.039V384.931z
			 M248.601,384.931h-11.458V245.086h11.458V384.931z M275.941,384.931h-22.653V245.086h22.653V384.931z M292.087,384.931h-11.458
			V245.086h11.458V384.931z M318.814,384.931h-22.04V245.086h22.04V384.931z M334.96,384.931h-11.458V245.086h11.458V384.931z
			 M334.96,240.399h-13.802h-26.728h-16.146h-27.341h-16.146h-26.727h-13.802v-7.031h140.689v7.031H334.96z M334.96,215.139v12.303
			l-63.302-27.668h63.302V215.139z M356.835,187.274h18.229v25.521h-18.229V187.274z M339.647,217.482h14.844h22.916h135.678v13.542
			H339.662c0-0.065-0.01-0.127-0.015-0.191V217.482L339.647,217.482z M513.085,384.931H339.647V245.086h173.438V384.931z
			 M524.543,240.399h-9.113H339.647v-4.688h175.78h9.114L524.543,240.399L524.543,240.399z"/>
		<path d="M437.955,297.626h17.188c1.295,0,2.344-1.049,2.344-2.344v-30.86c0-1.294-1.049-2.344-2.344-2.344h-17.188
			c-1.295,0-2.344,1.049-2.344,2.344v30.86C435.611,296.577,436.66,297.626,437.955,297.626z M440.299,266.766h12.5v26.172h-12.5
			V266.766z"/>
		<path d="M397.59,297.626h17.188c1.294,0,2.344-1.049,2.344-2.344v-30.86c0-1.294-1.05-2.344-2.344-2.344H397.59
			c-1.295,0-2.344,1.049-2.344,2.344v30.86C395.246,296.577,396.295,297.626,397.59,297.626z M399.935,266.766h12.5v26.172h-12.5
			V266.766z"/>
		<path d="M357.227,297.626h17.188c1.295,0,2.344-1.049,2.344-2.344v-30.86c0-1.294-1.049-2.344-2.344-2.344h-17.188
			c-1.295,0-2.345,1.049-2.345,2.344v30.86C354.882,296.577,355.932,297.626,357.227,297.626z M359.569,266.766h12.5v26.172h-12.5
			V266.766z"/>
		<path d="M478.319,358.954h17.188c1.295,0,2.345-1.049,2.345-2.344v-30.859c0-1.295-1.05-2.344-2.345-2.344h-17.188
			c-1.295,0-2.344,1.049-2.344,2.344v30.859C475.977,357.905,477.024,358.954,478.319,358.954z M480.663,328.095h12.5v26.172h-12.5
			V328.095z"/>
		<path d="M437.955,358.954h17.188c1.295,0,2.344-1.049,2.344-2.344v-30.859c0-1.295-1.049-2.344-2.344-2.344h-17.188
			c-1.295,0-2.344,1.049-2.344,2.344v30.859C435.611,357.905,436.66,358.954,437.955,358.954z M440.299,328.095h12.5v26.172h-12.5
			V328.095z"/>
		<path d="M397.59,358.954h17.188c1.294,0,2.344-1.049,2.344-2.344v-30.859c0-1.295-1.05-2.344-2.344-2.344H397.59
			c-1.295,0-2.344,1.049-2.344,2.344v30.859C395.246,357.905,396.295,358.954,397.59,358.954z M399.935,328.095h12.5v26.172h-12.5
			V328.095z"/>
		<path d="M357.227,358.954h17.188c1.295,0,2.344-1.049,2.344-2.344v-30.859c0-1.295-1.049-2.344-2.344-2.344h-17.188
			c-1.295,0-2.345,1.049-2.345,2.344v30.859C354.882,357.905,355.932,358.954,357.227,358.954z M359.569,328.095h12.5v26.172h-12.5
			V328.095z"/>
	</g>
</g>
<g>
</g>
<g>
</g>
<g>
</g>
<g>
</g>
<g>
</g>
<g>
</g>
<g>
</g>
<g>
</g>
<g>
</g>
<g>
</g>
<g>
</g>
<g>
</g>
<g>
</g>
<g>
</g>
<g>
</g>
</svg>
