<?xml version="1.0" encoding="iso-8859-1"?>
<!-- Generator: Adobe Illustrator 16.0.0, SVG Export Plug-In . SVG Version: 6.00 Build 0)  -->
<!DOCTYPE svg PUBLIC "-//W3C//DTD SVG 1.1//EN" "http://www.w3.org/Graphics/SVG/1.1/DTD/svg11.dtd">
<svg version="1.1" id="Capa_1" xmlns="http://www.w3.org/2000/svg" xmlns:xlink="http://www.w3.org/1999/xlink" x="0px" y="0px"
	 width="121.809px" height="121.809px" viewBox="0 0 121.809 121.809" style="enable-background:new 0 0 121.809 121.809;"
	 xml:space="preserve">
<g>
	<g>
		<path d="M12.183,121.809h97.443c4.037,0,7.309-3.271,7.309-7.31c0-4.035-3.271-7.309-7.309-7.309H12.183
			c-4.037,0-7.309,3.272-7.309,7.309C4.874,118.537,8.146,121.809,12.183,121.809z"/>
		<path d="M109.142,4.695c-1.443-3.766-5.66-5.657-9.439-4.207L10.785,34.593c-2.753,1.055-4.604,3.662-4.689,6.609
			c-0.085,2.948,1.607,5.657,4.297,6.872l88.918,40.197c0.974,0.44,1.996,0.65,3.002,0.65c2.785,0,5.443-1.6,6.664-4.302
			c1.664-3.678,0.028-8.007-3.649-9.671L32.366,41.967l72.568-27.834C108.704,12.69,110.588,8.464,109.142,4.695z"/>
	</g>
</g>
<g>
</g>
<g>
</g>
<g>
</g>
<g>
</g>
<g>
</g>
<g>
</g>
<g>
</g>
<g>
</g>
<g>
</g>
<g>
</g>
<g>
</g>
<g>
</g>
<g>
</g>
<g>
</g>
<g>
</g>
</svg>
