<?xml version="1.0" encoding="iso-8859-1"?>
<!-- Generator: Adobe Illustrator 18.0.0, SVG Export Plug-In . SVG Version: 6.00 Build 0)  -->
<!DOCTYPE svg PUBLIC "-//W3C//DTD SVG 1.1//EN" "http://www.w3.org/Graphics/SVG/1.1/DTD/svg11.dtd">
<svg version="1.1" id="Capa_1" xmlns="http://www.w3.org/2000/svg" xmlns:xlink="http://www.w3.org/1999/xlink" x="0px" y="0px"
	 viewBox="0 0 297 297" style="enable-background:new 0 0 297 297;" xml:space="preserve">
<g>
	<path d="M288.5,17.5H8.5C3.806,17.5,0,21.306,0,26v245c0,4.694,3.806,8.5,8.5,8.5h280c4.694,0,8.5-3.806,8.5-8.5V26
		C297,21.306,293.194,17.5,288.5,17.5z M280,262.5H17v-228h263V262.5z"/>
	<path d="M61,157h35c4.694,0,8.5-3.806,8.5-8.5v-70c0-4.694-3.806-8.5-8.5-8.5H61c-4.694,0-8.5,3.806-8.5,8.5v70
		C52.5,153.194,56.306,157,61,157z M69.5,87h18v53h-18V87z"/>
	<path d="M131,157h35c4.694,0,8.5-3.806,8.5-8.5v-70c0-4.694-3.806-8.5-8.5-8.5h-35c-4.694,0-8.5,3.806-8.5,8.5v70
		C122.5,153.194,126.306,157,131,157z M139.5,87h18v53h-18V87z"/>
	<path d="M201,140c-4.694,0-8.5,3.806-8.5,8.5s3.806,8.5,8.5,8.5h35c4.694,0,8.5-3.806,8.5-8.5v-70c0-4.694-3.806-8.5-8.5-8.5h-35
		c-4.694,0-8.5,3.806-8.5,8.5s3.806,8.5,8.5,8.5h26.5v18H201c-4.694,0-8.5,3.806-8.5,8.5s3.806,8.5,8.5,8.5h26.5v18H201z"/>
	<path d="M70,209.75c0,19.161,15.589,34.75,34.75,34.75s34.75-15.589,34.75-34.75S123.911,175,104.75,175S70,190.589,70,209.75z
		 M104.75,192c9.787,0,17.75,7.963,17.75,17.75s-7.963,17.75-17.75,17.75S87,219.537,87,209.75S94.963,192,104.75,192z"/>
	<path d="M157.5,209.75c0,19.161,15.589,34.75,34.75,34.75S227,228.911,227,209.75S211.411,175,192.25,175
		S157.5,190.589,157.5,209.75z M192.25,192c9.787,0,17.75,7.963,17.75,17.75s-7.963,17.75-17.75,17.75s-17.75-7.963-17.75-17.75
		S182.463,192,192.25,192z"/>
	<path d="M35.017,253.52c2.24,0,4.431-0.91,6.01-2.5c1.58-1.58,2.49-3.77,2.49-6c0-2.24-0.91-4.43-2.49-6.02
		c-1.579-1.58-3.77-2.48-6.01-2.48s-4.43,0.9-6.01,2.48c-1.58,1.59-2.49,3.779-2.49,6.02c0,2.23,0.91,4.42,2.49,6
		C30.587,252.609,32.776,253.52,35.017,253.52z"/>
	<path d="M35.017,60.49c2.24,0,4.42-0.91,6.01-2.49c1.58-1.59,2.49-3.78,2.49-6.021c0-2.229-0.91-4.42-2.49-6.01
		c-1.579-1.58-3.77-2.49-6.01-2.49s-4.43,0.91-6.01,2.49c-1.58,1.59-2.49,3.78-2.49,6.01c0,2.24,0.91,4.431,2.49,6.021
		C30.587,59.58,32.776,60.49,35.017,60.49z"/>
	<path d="M260.927,253.52c2.23,0,4.42-0.91,6.01-2.5c1.58-1.58,2.49-3.77,2.49-6c0-2.24-0.91-4.43-2.49-6.02
		c-1.59-1.58-3.779-2.48-6.01-2.48c-2.24,0-4.43,0.9-6.01,2.48c-1.59,1.59-2.49,3.779-2.49,6.02c0,2.23,0.9,4.42,2.49,6
		C256.497,252.609,258.687,253.52,260.927,253.52z"/>
	<path d="M260.927,60.49c2.23,0,4.42-0.91,6.01-2.49c1.58-1.59,2.49-3.78,2.49-6.021c0-2.229-0.91-4.42-2.49-6.01
		c-1.59-1.58-3.779-2.49-6.01-2.49c-2.24,0-4.43,0.91-6.01,2.49c-1.59,1.59-2.49,3.78-2.49,6.01c0,2.24,0.9,4.431,2.49,6.021
		C256.497,59.58,258.687,60.49,260.927,60.49z"/>
</g>
<g>
</g>
<g>
</g>
<g>
</g>
<g>
</g>
<g>
</g>
<g>
</g>
<g>
</g>
<g>
</g>
<g>
</g>
<g>
</g>
<g>
</g>
<g>
</g>
<g>
</g>
<g>
</g>
<g>
</g>
</svg>
